<?xml version="1.0" standalone="no"?>
<!DOCTYPE svg PUBLIC "-//W3C//DTD SVG 20010904//EN"
 "http://www.w3.org/TR/2001/REC-SVG-20010904/DTD/svg10.dtd">
<svg version="1.0" xmlns="http://www.w3.org/2000/svg"
 width="531.000000pt" height="307.000000pt" viewBox="0 0 531.000000 307.000000"
 preserveAspectRatio="xMidYMid meet">

<g transform="translate(0.000000,307.000000) scale(0.100000,-0.100000)"
fill="#000000" stroke="none">
<path d="M3220 2920 l0 -60 60 0 60 0 0 60 0 60 -60 0 -60 0 0 -60z"/>
<path d="M3020 2755 l0 -95 95 0 95 0 0 95 0 95 -95 0 -95 0 0 -95z"/>
<path d="M3220 2565 l0 -95 90 0 90 0 0 95 0 95 -90 0 -90 0 0 -95z"/>
<path d="M3410 2405 l0 -65 60 0 60 0 0 65 0 65 -60 0 -60 0 0 -65z"/>
<path d="M2090 2400 l0 -60 -60 0 -60 0 0 -220 0 -220 60 0 59 0 4 148 c1 81
3 -76 3 -348 -1 -272 -2 -402 -3 -287 l-3 207 -60 0 -60 0 0 -270 0 -270 240
0 240 0 0 65 0 65 140 0 140 0 0 -65 0 -65 175 0 175 0 0 65 0 65 60 0 60 0 0
245 0 245 -60 0 -60 0 0 140 0 140 60 0 60 0 0 180 0 180 -55 0 -55 0 0 60 0
60 -180 0 -180 0 0 -60 0 -60 -140 0 -140 0 0 60 0 60 -180 0 -180 0 0 -60z
m157 -172 c-2 -24 -4 -7 -4 37 0 44 2 63 4 43 2 -21 2 -57 0 -80z m723 -383
l0 -375 -70 0 -70 0 0 -75 0 -75 -310 0 -310 0 0 380 0 380 70 0 70 0 0 70 0
70 310 0 310 0 0 -375z m78 -492 c-21 -2 -55 -2 -75 0 -21 2 -4 4 37 4 41 0
58 -2 38 -4z"/>
<path d="M2453 1955 c-37 -16 -51 -39 -59 -97 -15 -111 33 -168 144 -168 68 0
79 -9 68 -56 -9 -33 -49 -30 -54 4 -3 21 -8 22 -78 22 l-74 0 0 -40 c0 -30 7
-48 29 -72 l29 -33 121 0 c118 0 121 0 148 28 26 25 28 33 28 107 0 73 -2 82
-27 106 -23 23 -37 28 -103 32 l-76 5 3 36 c2 28 7 36 23 36 13 0 21 -8 23
-22 3 -22 8 -23 78 -23 l74 0 0 35 c0 86 -44 115 -177 115 -52 -1 -101 -6
-120 -15z"/>
</g>
</svg>
